<?xml version="1.0" encoding="UTF-8"?>
<svg id="_レイヤー_1" data-name="レイヤー_1" xmlns="http://www.w3.org/2000/svg" version="1.1" viewBox="0 0 473 308.2">
  <!-- Generator: Adobe Illustrator 30.7.0, SVG Export Plug-In . SVG Version: 2.1.4 Build 114)  -->
  <path d="M279.2,69.8c-33.8-3.3-64.7,10.3-85,36.4-28.1,36-27.2,86.7,3.2,121,19.8,21.6,47.7,31.9,78,29.7l-22.8,24.1c-32.1-2.6-61.4-18.7-80.4-44.5-35.8-48.8-29.4-116.6,14-158.5,18.5-17.8,41.2-29.4,67.4-32.7l.2-15h-15.9c-4.2-.1-8.7-3.4-8.7-7.7v-13.9c-.1-4.1,3.2-8.6,7.6-8.6h58.9c3.7,0,7.7,3.1,7.9,6.6l.4,13.1c.1,3.2-.7,5.9-2.8,7.8s-4.9,2.7-8.4,2.7h-12.5s.2,14.2.2,14.2c40.5,2.2,75.8,25.2,94,61.5,8.1,16.1,11.6,33.3,12.5,51.4,1.1,23.5-5,46.4-17,67.1l-18.2-18c15.2-30.2,14.3-66.5-3.5-95.4-14.9-24.3-40.4-38.6-69-41.4Z" fill="#ffffff"/>
  <path d="M289.1,305.5c-5.6,5.5-14.7,1.5-17.9-3.5s-2.4-13.4,3.1-18.8l60.5-60.4c3.3-2.5,6.6-1,9.2,1.6l29.2,28.2,50.5-53.3-11.1-10.5c-1.6-1.5-2.3-3.3-1.9-5.4s1.9-3.6,4.4-4.2l54.7-12.2c1.5-.3,3.3,1,3.1,2.8l-6.5,57.7c-.2,2.1-1.6,3.5-2.7,4-1.9,1-4.3.5-5.9-.9l-13.9-12.4-64.3,67.4c-1.8,1.9-3.5,2.9-5.6,3s-3.9-1-5.7-2.7l-30.1-28.4-49.2,48.1Z" fill="#ffffff"/>
  <path d="M140.3,107.9H9.5C3.3,108-.1,101.1,0,96.3s3.8-11.1,10-11.1h129.4c5.7,0,9.4,5.8,9.8,10.3s-2.4,12.4-9,12.4Z" fill="#ffffff"/>
  <path d="M280.6,168.7c-.3,8.9-6,15.8-13.2,18.3s-16.7.4-22.1-5.5-6.8-15.4-2.6-22.9c4.6-8.3,13.7-11.5,23.3-9.4l50.7-39.5c2.9-2.2,5.9-2.6,8.7-.8s4.4,6.6,1.8,9.3l-46.5,50.5Z" fill="#fb635e"/>
  <path d="M114.7,165.9l-78.7.2c-6.3,0-10.6-5.6-10.8-11-.2-5.3,3.6-11.9,9.9-11.9h80.1c5.9,0,9.4,6.3,9.5,11s-3.6,11.7-10.1,11.7Z" fill="#fb635e"/>
  <path d="M127.1,220.2h-61.1c-6.2,0-9.7-6.8-9.4-11.9s4.3-11,10.4-11l61.3.2c6.1,0,9.6,6.6,9.4,11.7s-4.2,11-10.6,11Z" fill="#ffffff"/>
</svg>