<?xml version="1.0" encoding="UTF-8"?>
<svg id="_レイヤー_1" data-name="レイヤー_1" xmlns="http://www.w3.org/2000/svg" version="1.1" viewBox="0 0 452.2 327.6">
  <!-- Generator: Adobe Illustrator 30.7.0, SVG Export Plug-In . SVG Version: 2.1.4 Build 114)  -->
  <path d="M139.1,292.7H16.7C7.1,292.6,0,285.2,0,275.8l.2-86.8c0-7.7,7.7-13.2,14.8-13.3l29.6-.6,17-1h77.9c8.2,0,15.6,6.8,15.6,14.9v89.5c-.1,8-8.1,13.2-16,14.1ZM72.8,265.4l18.4-61.8c.9-3.2-.6-5.9-3.4-6.5s-4.9.4-5.7,3.2l-18.6,62.4c-1,3.3.8,6,3.5,6.4s4.8-.5,5.8-3.7ZM54.6,248.2l-16.3-15.3,17-16.3c2.1-2,1.4-5.2-.4-6.7s-4.5-1.8-6.4,0l-20.1,18.8c-2.6,2.5-2.7,5.9,0,8.4l19.7,18.2c2.2,2.1,5.7,2.1,7.4,0s1.4-5-.9-7.1ZM106.7,255.5l20.6-18.9c2-1.8,2.5-5,.4-7l-21.8-20.1c-2.1-1.9-5.9-.4-6.8,1.3s-.8,4.5,1,6.3l16.7,15.8-15.8,14.4c-2.3,2.1-3.5,4.6-1.9,7.4s4.9,3.1,7.5.7Z" fill="#212121"/>
  <path d="M334.6,45.9H80.8c-4.6-.1-6.8,2.9-6.8,7v102.6c-3.7,3.5-10.9,3.3-14-.5l-.2-132.2c0-12.3,9.2-22.8,21.9-22.8h245.7c13.6-.1,24.5,8.9,24.5,22.8v61.9c0,0-12,12.6-12,12.6l-.4-44.6c-.1-1.8-1.3-6.8-5-6.8ZM101.4,22.3c0-4.3-3.5-7.8-7.8-7.8s-7.8,3.5-7.8,7.8,3.5,7.8,7.8,7.8,7.8-3.5,7.8-7.8ZM130.5,22.3c0-4.3-3.4-7.7-7.7-7.7s-7.7,3.4-7.7,7.7,3.4,7.7,7.7,7.7,7.7-3.4,7.7-7.7ZM159.4,22.3c0-4.3-3.5-7.8-7.8-7.8s-7.8,3.5-7.8,7.8,3.5,7.8,7.8,7.8,7.8-3.5,7.8-7.8Z" fill="#212121"/>
  <path d="M376.4,82.7l36.2,35.6-140.8,143-36.2-35.6,140.8-143ZM271.5,230.5l109.2-110.4c2.3-2.3,2.8-4.9.2-7.1s-4.1-.9-6,1.1l-37.1,37.9-71.5,72.3c-1.8,1.8-1.8,3.9-.4,5.6s3.8,2.2,5.6.4Z" fill="#212121"/>
  <path d="M247.9,191.2l-73.3.2c-2.3,0-4.3-.9-4.1-3.7.5-13.7-8.3-27.1-22.3-29.4l-32-1.2,51.2-54.2c5.2-5.5,12.8-4.7,18.1,0l41.9,37.1c1.9,0,4-2.1,5.2-3,5-5.4,12.6-5.1,17.7.2l24.6,26.3-27,27.7Z" fill="#212121"/>
  <path d="M379.3,259.7c-.6,2.6-.4,5.3.5,7.7-15.6,1.6-28.2,10.9-36.6,24.1s-14.5,17.2-25.7,20l-.2,12.2c0,2-1.9,3.6-4,3.6h-20.8c-2.2.1-4.1-1.3-4.1-3.6v-21.9c0-2.3,1.9-3.7,4-3.8l8.3-.3c-1.6-1.8-1.8-3.6-1.8-5.9l.2-31.5c0-2.2,3.1-3,4.7-2.6s2.5,1.8,2.5,4.1l-.5,34.3c-1.1,1.2-.2,2,1.2,2h2.5c2,0,5.3-.5,6.1.9l2.7,4.4c6.8-2.3,12.5-7.4,16.4-13.2,11.5-17,24.1-28.2,44.5-30.5Z" fill="#212121"/>
  <path d="M422.2,106.4l-30.5-28.7c-2.2-2.1-4.5-3.2-6.3-6.1l15.5-17.7c5.1-5.8,14.7-3.7,20,1.5l16.7,16.4c5.1,5,2.9,14.1-1.9,18.8l-13.4,15.7Z" fill="#fb635e"/>
  <path d="M441.1,292c0,2.4-2.1,3.5-3.2,3.7-1.6.3-4-1-4-3.2v-77.4c.2-.9,1.2-2.4.8-2.9-1.9-2.5-6.7,0-9.3-1.8s-2.1-2.5-2.1-4.6v-19.1c0-3.2,2-5.2,5.1-5.2h19.1c2.4.1,4.6,1.8,4.5,4.4l-.3,22.2c0,4-7.8,2.1-10.7,3.3s0,2.5,0,3.6v77Z" fill="#212121"/>
  <circle cx="251.8" cy="95.6" r="20.3" fill="#fb635e"/>
  <path d="M240.2,262c5.2,3.5,9.9,7.7,8.3,11.1s-1.4,1.2-2.8,1.9l-34.8,17.2c-1.4.7-3,.4-3.9-.3s-1.6-2.7-.8-4.5l17-38.1c1.1-2.4,5.6.9,7,2,2.9,2.4,5.7,6.1,2.9,10.6h7.1Z" fill="#212121"/>
  <path d="M448.1,327.5h-20.4c-2.3,0-3.8-1.4-4.2-3.7v-21.9c0-2.2,2.1-3.8,4.2-3.8h20c2.9,0,4.7,2,4.7,4.8v20.8c0,2.1-1.6,3.9-4.2,3.9Z" fill="#212121"/>
  <circle cx="393" cy="262.7" r="14" fill="#fb635e"/>
  <path d="M419.1,200.2h-59c-1.4,0-2.4-2.8-2-3.7s1.7-3.5,3.7-3.5h54.7c2.6,0,4.3.4,4.9,2.4s0,4.8-2.3,4.8Z" fill="#212121"/>
  <path d="M406.4,266.8c.8-2.5.8-5.2.2-7.7,3-.8,7.9.4,7.5,4.5s-5,4-7.7,3.2Z" fill="#212121"/>
</svg>